<?xml version="1.0" encoding="utf-8"?>
<!-- Generator: Adobe Illustrator 23.0.5, SVG Export Plug-In . SVG Version: 6.00 Build 0)  -->
<svg version="1.1" id="publicdomainvectors.org" xmlns="http://www.w3.org/2000/svg" xmlns:xlink="http://www.w3.org/1999/xlink"
	 x="0px" y="0px" viewBox="0 0 480.46 571.02" style="enable-background:new 0 0 480.46 571.02;" xml:space="preserve">
<style type="text/css">
	.st0{fill-rule:evenodd;clip-rule:evenodd;fill:#EDECED;}
	.st1{fill-rule:evenodd;clip-rule:evenodd;fill:#6E7C28;}
	.st2{fill-rule:evenodd;clip-rule:evenodd;fill:#9BAC22;}
	.st3{fill-rule:evenodd;clip-rule:evenodd;fill:#C3D200;}
	.st4{fill-rule:evenodd;clip-rule:evenodd;fill:#3F431A;}
	.st5{fill-rule:evenodd;clip-rule:evenodd;fill:#4A7AAF;}
	.st6{fill-rule:evenodd;clip-rule:evenodd;fill:#3B3835;}
	.st7{fill-rule:evenodd;clip-rule:evenodd;fill:#A8C5E7;}
	.st8{fill-rule:evenodd;clip-rule:evenodd;fill:#586324;}
	.st9{fill-rule:evenodd;clip-rule:evenodd;fill:#EB5F63;}
	.st10{fill-rule:evenodd;clip-rule:evenodd;fill:#FAD3D6;}
	.st11{fill-rule:evenodd;clip-rule:evenodd;fill:#FCBC00;}
	.st12{fill-rule:evenodd;clip-rule:evenodd;fill:#FFF17D;}
	.st13{fill-rule:evenodd;clip-rule:evenodd;fill:#FFFFFF;}
	.st14{fill-rule:evenodd;clip-rule:evenodd;fill:#97BEE6;}
	.st15{fill-rule:evenodd;clip-rule:evenodd;fill:#EBF4FC;}
	.st16{fill-rule:evenodd;clip-rule:evenodd;fill:#6F4013;}
	.st17{fill-rule:evenodd;clip-rule:evenodd;fill:#A1682A;}
	.st18{fill-rule:evenodd;clip-rule:evenodd;fill:#E53536;}
	.st19{fill-rule:evenodd;clip-rule:evenodd;fill:#E6075F;}
	.st20{fill-rule:evenodd;clip-rule:evenodd;fill:#FFDE13;}
	.st21{fill-rule:evenodd;clip-rule:evenodd;fill:#31A2CC;}
	.st22{fill-rule:evenodd;clip-rule:evenodd;fill:#40BBC9;}
	.st23{fill-rule:evenodd;clip-rule:evenodd;fill:#BBE2EE;}
	.st24{fill-rule:evenodd;clip-rule:evenodd;fill:#A29F9D;}
	.st25{fill-rule:evenodd;clip-rule:evenodd;fill:#EDF0C8;}
	.st26{fill-rule:evenodd;clip-rule:evenodd;fill:#D8DD53;}
	.st27{fill-rule:evenodd;clip-rule:evenodd;fill:#282918;}
	.st28{fill-rule:evenodd;clip-rule:evenodd;fill:#E8EDB3;}
</style>
<g>
	<path class="st0" d="M15.28,540.46h449.9c8.4,0,15.28,6.88,15.28,15.28l0,0c0,8.4-6.88,15.28-15.28,15.28H15.28
		c-8.4,0-15.28-6.88-15.28-15.28l0,0C0,547.33,6.88,540.46,15.28,540.46z"/>
	<g>
		<path class="st1" d="M48.17,517.74h73.85v35.65H48.17V517.74L48.17,517.74z M358.44,517.74h73.85v35.65h-73.85V517.74z"/>
		<rect x="17.27" class="st2" width="445.92" height="525.15"/>
		<rect x="46.69" y="28.29" class="st1" width="286.92" height="366.37"/>
		<rect x="352.28" y="28.29" class="st3" width="78.37" height="284.25"/>
		<rect x="46.69" y="416.73" class="st4" width="286.92" height="80.14"/>
		<polygon class="st5" points="79.04,80.48 87.14,67.7 87.14,51.82 100.54,51.82 100.54,67.7 108.63,80.48 108.63,130.94 
			79.04,130.94 		"/>
		<path class="st6" d="M88.23,47.3h11.21c2.06,0,3.74,1.68,3.74,3.74v9.5H84.49v-9.5C84.49,48.98,86.17,47.3,88.23,47.3z"/>
		<rect x="80.13" y="88.42" class="st7" width="22.9" height="34.42"/>
		<path class="st8" d="M48.17,525.15h73.85v8.72H48.17V525.15L48.17,525.15z M358.44,525.15h73.85v8.72h-73.85V525.15z"/>
		<path class="st9" d="M143.41,80.48c2.7-4.26,5.4-8.51,8.1-12.77c0-5.3,0-10.59,0-15.89c4.47,0,8.93,0,13.4,0
			c0,5.3,0,10.59,0,15.89c2.7,4.26,5.4,8.52,8.1,12.77c0,16.82,0,33.64,0,50.46c-9.86,0-19.73,0-29.59,0
			C143.41,114.12,143.41,97.3,143.41,80.48z"/>
		<path class="st6" d="M152.6,47.3c3.74,0,7.48,0,11.21,0c2.06,0,3.74,1.68,3.74,3.74c0,3.17,0,6.33,0,9.5c-6.23,0-12.46,0-18.69,0
			c0-3.17,0-6.33,0-9.5C148.86,48.98,150.55,47.3,152.6,47.3z"/>
		<path class="st10" d="M144.5,88.42c7.63,0,15.26,0,22.9,0c0,11.47,0,22.95,0,34.42c-7.63,0-15.26,0-22.9,0
			C144.5,111.37,144.5,99.89,144.5,88.42z"/>
		<path class="st11" d="M207.78,80.48c2.7-4.26,5.4-8.51,8.1-12.77c0-5.3,0-10.59,0-15.89c4.47,0,8.93,0,13.4,0
			c0,5.3,0,10.59,0,15.89c2.7,4.26,5.4,8.52,8.1,12.77c0,16.82,0,33.64,0,50.46c-9.87,0-19.73,0-29.59,0
			C207.78,114.12,207.78,97.3,207.78,80.48z"/>
		<path class="st6" d="M216.98,47.3c3.74,0,7.48,0,11.21,0c2.06,0,3.74,1.68,3.74,3.74c0,3.17,0,6.33,0,9.5c-6.23,0-12.46,0-18.69,0
			c0-3.17,0-6.33,0-9.5C213.24,48.98,214.92,47.3,216.98,47.3z"/>
		<path class="st12" d="M208.88,88.42c7.63,0,15.26,0,22.9,0c0,11.47,0,22.95,0,34.42c-7.63,0-15.26,0-22.9,0
			C208.88,111.37,208.88,99.89,208.88,88.42z"/>
		<polygon class="st0" points="272.16,80.48 280.26,67.7 280.26,51.82 293.65,51.82 293.65,67.7 301.75,80.48 301.75,130.94 
			272.16,130.94 		"/>
		<path class="st6" d="M281.35,47.3h11.21c2.06,0,3.74,1.68,3.74,3.74v9.5h-18.69v-9.5C277.61,48.98,279.29,47.3,281.35,47.3z"/>
		<rect x="82.67" y="223.76" class="st13" width="21.83" height="14.07"/>
		<polygon class="st14" points="104.5,223.76 82.67,223.76 76.36,163.13 110.82,163.13 		"/>
		<path class="st15" d="M93.59,217.33c5.7,0,10.35-9.01,10.35-20.06c0-11.05-4.65-20.06-10.35-20.06c-5.7,0-10.35,9.01-10.35,20.06
			C83.24,208.32,87.89,217.33,93.59,217.33z"/>
		<path class="st13" d="M147.04,223.76c7.28,0,14.56,0,21.83,0c0,4.69,0,9.38,0,14.07c-7.28,0-14.55,0-21.83,0
			C147.04,233.14,147.04,228.45,147.04,223.76z"/>
		<path class="st11" d="M168.88,223.76c-7.28,0-14.55,0-21.83,0c-2.1-20.21-4.21-40.42-6.31-60.63c11.49,0,22.98,0,34.46,0
			C173.09,183.34,170.98,203.55,168.88,223.76z"/>
		<path class="st12" d="M157.96,177.21c5.71,0,10.35,8.98,10.35,20.06c0,11.08-4.63,20.06-10.35,20.06
			c-5.72,0-10.35-8.98-10.35-20.06C147.61,186.19,152.24,177.21,157.96,177.21z"/>
		<path class="st13" d="M211.42,223.76c7.28,0,14.56,0,21.83,0c0,4.69,0,9.38,0,14.07c-7.28,0-14.56,0-21.83,0
			C211.42,233.14,211.42,228.45,211.42,223.76z"/>
		<path class="st9" d="M233.25,223.76c-7.28,0-14.56,0-21.83,0c-2.1-20.21-4.21-40.42-6.32-60.63c11.49,0,22.98,0,34.46,0
			C237.46,183.34,235.35,203.55,233.25,223.76z"/>
		<path class="st10" d="M222.33,177.21c5.72,0,10.35,8.98,10.35,20.06c0,11.08-4.63,20.06-10.35,20.06s-10.35-8.98-10.35-20.06
			C211.98,186.19,216.62,177.21,222.33,177.21z"/>
		<rect x="275.79" y="223.76" class="st13" width="21.83" height="14.07"/>
		<polygon class="st16" points="297.62,223.76 275.79,223.76 269.47,163.13 303.94,163.13 		"/>
		<path class="st17" d="M286.71,217.33c5.7,0,10.35-9.01,10.35-20.06c0-11.05-4.65-20.06-10.35-20.06s-10.35,9.01-10.35,20.06
			C276.36,208.32,281.01,217.33,286.71,217.33z"/>
		<rect x="81.92" y="276.58" class="st9" width="23.35" height="53.48"/>
		<polygon class="st18" points="81.92,276.58 105.26,276.58 108.02,260.66 79.16,260.66 		"/>
		<polygon class="st18" points="81.92,330.06 105.26,330.06 108.02,345.97 79.16,345.97 		"/>
		<rect x="85.88" y="283.49" class="st10" width="8.62" height="39.66"/>
		<path class="st19" d="M146.29,276.58c7.78,0,15.56,0,23.34,0c0,17.83,0,35.65,0,53.48c-7.78,0-15.56,0-23.34,0
			C146.29,312.23,146.29,294.4,146.29,276.58z"/>
		<path class="st20" d="M146.29,276.58c7.78,0,15.56,0,23.34,0c0.92-5.31,1.84-10.61,2.76-15.92c-9.62,0-19.24,0-28.86,0
			C144.45,265.97,145.37,271.27,146.29,276.58z"/>
		<path class="st20" d="M146.29,330.06c7.78,0,15.56,0,23.34,0c0.92,5.31,1.84,10.61,2.76,15.92c-9.62,0-19.24,0-28.86,0
			C144.45,340.67,145.37,335.36,146.29,330.06z"/>
		<path class="st10" d="M150.26,283.49c2.87,0,5.75,0,8.62,0c0,13.22,0,26.44,0,39.66c-2.87,0-5.75,0-8.62,0
			C150.26,309.93,150.26,296.71,150.26,283.49z"/>
		<path class="st11" d="M210.66,276.58c7.78,0,15.56,0,23.34,0c0,17.83,0,35.65,0,53.48c-7.78,0-15.56,0-23.34,0
			C210.66,312.23,210.66,294.4,210.66,276.58z"/>
		<path class="st14" d="M210.66,276.58c7.78,0,15.56,0,23.34,0c0.92-5.31,1.84-10.61,2.76-15.92c-9.62,0-19.24,0-28.86,0
			C208.82,265.97,209.74,271.27,210.66,276.58z"/>
		<path class="st14" d="M210.66,330.06c7.78,0,15.56,0,23.34,0c0.92,5.31,1.84,10.61,2.76,15.92c-9.62,0-19.24,0-28.86,0
			C208.82,340.67,209.74,335.36,210.66,330.06z"/>
		<path class="st12" d="M214.63,283.49c2.87,0,5.75,0,8.62,0c0,13.22,0,26.44,0,39.66c-2.87,0-5.75,0-8.62,0
			C214.63,309.93,214.63,296.71,214.63,283.49z"/>
		<rect x="275.03" y="276.58" class="st21" width="23.34" height="53.48"/>
		<polygon class="st22" points="275.03,276.58 298.38,276.58 301.14,260.66 272.27,260.66 		"/>
		<polygon class="st22" points="275.03,330.06 298.38,330.06 301.14,345.97 272.27,345.97 		"/>
		<rect x="279" y="283.49" class="st23" width="8.62" height="39.66"/>
		<rect x="273.25" y="88.42" class="st24" width="22.89" height="34.42"/>
		<g>
			<path class="st25" d="M157.96,93.18c13.48,0,24.41,10.93,24.41,24.4c0,13.48-10.93,24.4-24.41,24.4
				c-13.48,0-24.4-10.93-24.4-24.4C133.56,104.11,144.48,93.18,157.96,93.18L157.96,93.18z M93.59,93.18
				c13.48,0,24.4,10.93,24.4,24.4c0,13.48-10.93,24.4-24.4,24.4c-13.48,0-24.41-10.93-24.41-24.4
				C69.18,104.11,80.11,93.18,93.59,93.18L93.59,93.18z M93.59,98.7c-10.43,0-18.89,8.46-18.89,18.89
				c0,10.43,8.46,18.89,18.89,18.89c10.43,0,18.89-8.46,18.89-18.89C112.48,107.15,104.02,98.7,93.59,98.7L93.59,98.7z
				 M286.71,93.18c13.48,0,24.41,10.93,24.41,24.4c0,13.48-10.93,24.4-24.41,24.4s-24.41-10.93-24.41-24.4
				C262.3,104.11,273.23,93.18,286.71,93.18L286.71,93.18z M286.71,98.7c-10.43,0-18.89,8.46-18.89,18.89
				c0,10.43,8.46,18.89,18.89,18.89c10.43,0,18.89-8.46,18.89-18.89C305.59,107.15,297.14,98.7,286.71,98.7L286.71,98.7z
				 M222.33,93.18c13.48,0,24.4,10.93,24.4,24.4c0,13.48-10.93,24.4-24.4,24.4c-13.48,0-24.41-10.93-24.41-24.4
				C197.93,104.11,208.85,93.18,222.33,93.18L222.33,93.18z M222.33,98.7c-10.43,0-18.89,8.46-18.89,18.89
				c0,10.43,8.46,18.89,18.89,18.89c10.43,0,18.89-8.46,18.89-18.89C241.22,107.15,232.76,98.7,222.33,98.7L222.33,98.7z
				 M157.96,98.7c-10.43,0-18.89,8.46-18.89,18.89c0,10.43,8.46,18.89,18.89,18.89c10.43,0,18.89-8.46,18.89-18.89
				C176.85,107.15,168.39,98.7,157.96,98.7z"/>
			<rect x="46.69" y="129.68" class="st26" width="286.92" height="14.43"/>
		</g>
		<g>
			<g>
				<path class="st25" d="M157.96,201.33c13.48,0,24.41,10.93,24.41,24.4c0,13.48-10.93,24.4-24.41,24.4
					c-13.48,0-24.4-10.93-24.4-24.4C133.56,212.25,144.48,201.33,157.96,201.33L157.96,201.33z M93.59,201.33
					c13.48,0,24.4,10.93,24.4,24.4c0,13.48-10.93,24.4-24.4,24.4c-13.48,0-24.41-10.93-24.41-24.4
					C69.18,212.25,80.11,201.33,93.59,201.33L93.59,201.33z M93.59,206.84c-10.43,0-18.89,8.46-18.89,18.89
					c0,10.43,8.46,18.89,18.89,18.89c10.43,0,18.89-8.46,18.89-18.89C112.48,215.3,104.02,206.84,93.59,206.84L93.59,206.84z
					 M286.71,201.33c13.48,0,24.41,10.93,24.41,24.4c0,13.48-10.93,24.4-24.41,24.4s-24.41-10.93-24.41-24.4
					C262.3,212.25,273.23,201.33,286.71,201.33L286.71,201.33z M286.71,206.84c-10.43,0-18.89,8.46-18.89,18.89
					c0,10.43,8.46,18.89,18.89,18.89c10.43,0,18.89-8.46,18.89-18.89C305.59,215.3,297.14,206.84,286.71,206.84L286.71,206.84z
					 M222.33,201.33c13.48,0,24.4,10.93,24.4,24.4c0,13.48-10.93,24.4-24.4,24.4c-13.48,0-24.41-10.93-24.41-24.4
					C197.93,212.25,208.85,201.33,222.33,201.33L222.33,201.33z M222.33,206.84c-10.43,0-18.89,8.46-18.89,18.89
					c0,10.43,8.46,18.89,18.89,18.89c10.43,0,18.89-8.46,18.89-18.89C241.22,215.3,232.76,206.84,222.33,206.84L222.33,206.84z
					 M157.96,206.84c-10.43,0-18.89,8.46-18.89,18.89c0,10.43,8.46,18.89,18.89,18.89c10.43,0,18.89-8.46,18.89-18.89
					C176.85,215.3,168.39,206.84,157.96,206.84z"/>
				<path class="st26" d="M46.69,237.83c95.64,0,191.28,0,286.92,0c0,4.81,0,9.62,0,14.43c-95.64,0-191.28,0-286.92,0
					C46.69,247.45,46.69,242.64,46.69,237.83z"/>
			</g>
		</g>
		<g>
			<path class="st25" d="M157.96,309.47c13.48,0,24.41,10.93,24.41,24.41c0,13.48-10.93,24.41-24.41,24.41
				c-13.48,0-24.4-10.93-24.4-24.41C133.56,320.4,144.48,309.47,157.96,309.47L157.96,309.47z M93.59,309.47
				c13.48,0,24.4,10.93,24.4,24.41c0,13.48-10.93,24.41-24.4,24.41c-13.48,0-24.41-10.93-24.41-24.41
				C69.18,320.4,80.11,309.47,93.59,309.47L93.59,309.47z M93.59,314.99c-10.43,0-18.89,8.46-18.89,18.89
				c0,10.43,8.46,18.89,18.89,18.89c10.43,0,18.89-8.46,18.89-18.89C112.48,323.44,104.02,314.99,93.59,314.99L93.59,314.99z
				 M286.71,309.47c13.48,0,24.41,10.93,24.41,24.41c0,13.48-10.93,24.41-24.41,24.41s-24.41-10.93-24.41-24.41
				C262.3,320.4,273.23,309.47,286.71,309.47L286.71,309.47z M286.71,314.99c-10.43,0-18.89,8.46-18.89,18.89
				c0,10.43,8.46,18.89,18.89,18.89c10.43,0,18.89-8.46,18.89-18.89C305.59,323.44,297.14,314.99,286.71,314.99L286.71,314.99z
				 M222.33,309.47c13.48,0,24.4,10.93,24.4,24.41c0,13.48-10.93,24.41-24.4,24.41c-13.48,0-24.41-10.93-24.41-24.41
				C197.93,320.4,208.85,309.47,222.33,309.47L222.33,309.47z M222.33,314.99c-10.43,0-18.89,8.46-18.89,18.89
				c0,10.43,8.46,18.89,18.89,18.89c10.43,0,18.89-8.46,18.89-18.89C241.22,323.44,232.76,314.99,222.33,314.99L222.33,314.99z
				 M157.96,314.99c-10.43,0-18.89,8.46-18.89,18.89c0,10.43,8.46,18.89,18.89,18.89c10.43,0,18.89-8.46,18.89-18.89
				C176.85,323.44,168.39,314.99,157.96,314.99z"/>
			<rect x="46.69" y="345.97" class="st26" width="286.92" height="14.43"/>
		</g>
		<path class="st27" d="M71.94,427.98h236.41v10.19H71.94V427.98L71.94,427.98z M71.94,460.24h236.41v10.19H71.94V460.24z"/>
		<rect x="361.12" y="76.34" class="st28" width="60.69" height="26.74"/>
		<path class="st1" d="M383.41,110.1c5.37,0,10.74,0,16.11,0c0,5.37,0,10.74,0,16.11c-5.37,0-10.74,0-16.11,0
			C383.41,120.84,383.41,115.47,383.41,110.1L383.41,110.1z M383.41,131.82c5.37,0,10.74,0,16.11,0c0,5.37,0,10.74,0,16.11
			c-5.37,0-10.74,0-16.11,0C383.41,142.56,383.41,137.19,383.41,131.82L383.41,131.82z M361.12,131.82c5.37,0,10.74,0,16.11,0
			c0,5.37,0,10.74,0,16.11c-5.37,0-10.74,0-16.11,0C361.12,142.56,361.12,137.19,361.12,131.82L361.12,131.82z M405.7,131.82
			c5.37,0,10.74,0,16.11,0c0,5.37,0,10.74,0,16.11c-5.37,0-10.74,0-16.11,0C405.7,142.56,405.7,137.19,405.7,131.82L405.7,131.82z
			 M383.41,153.54c5.37,0,10.74,0,16.11,0c0,5.37,0,10.74,0,16.11c-5.37,0-10.74,0-16.11,0
			C383.41,164.27,383.41,158.9,383.41,153.54L383.41,153.54z M361.12,153.54c5.37,0,10.74,0,16.11,0c0,5.37,0,10.74,0,16.11
			c-5.37,0-10.74,0-16.11,0C361.12,164.27,361.12,158.9,361.12,153.54L361.12,153.54z M405.7,153.54c5.37,0,10.74,0,16.11,0
			c0,5.37,0,10.74,0,16.11c-5.37,0-10.74,0-16.11,0C405.7,164.27,405.7,158.9,405.7,153.54L405.7,153.54z M383.41,175.25
			c5.37,0,10.74,0,16.11,0c0,5.37,0,10.74,0,16.11c-5.37,0-10.74,0-16.11,0C383.41,185.99,383.41,180.62,383.41,175.25
			L383.41,175.25z M361.12,175.25h16.11v16.11h-16.11V175.25L361.12,175.25z M405.7,175.25h16.11v16.11H405.7V175.25L405.7,175.25z
			 M361.12,110.1h16.11v16.11h-16.11V110.1L361.12,110.1z M405.7,110.1h16.11v16.11H405.7V110.1z"/>
		<rect x="404.98" y="201.14" class="st1" width="16.83" height="45.61"/>
		<rect x="409.29" y="207.08" class="st4" width="8.21" height="33.72"/>
		<rect x="357.93" y="259.73" class="st2" width="67.06" height="44.64"/>
		<path class="st1" d="M380.65,259.73h21.63c0,5.97-4.84,10.81-10.81,10.81C385.49,270.55,380.65,265.71,380.65,259.73z"/>
	</g>
</g>
</svg>
